<?xml version="1.0"?>
<svg xmlns="http://www.w3.org/2000/svg" height="512px" viewBox="0 0 512 512" width="512px" class=""><g><path d="m512 120.878906v-30h-60.855469v-30.023437h-30.023437v-60.855469h-30v60.855469h-30.050782v-60.855469h-30v60.855469h-30.046874v-60.855469h-30v60.855469h-30.046876v-60.855469h-30v60.855469h-30.046874v-60.855469h-30v60.855469h-30.050782v-60.855469h-30v60.855469h-30.023437v30.023437h-60.855469v30h60.855469v30.050782h-60.855469v30h60.855469v30.046874h-60.855469v30h60.855469v30.046876h-60.855469v30h60.855469v30.046874h-60.855469v30h60.855469v30.050782h-60.855469v30h60.855469v30.023437h30.023437v60.855469h30v-60.855469h30.050782v60.855469h30v-60.855469h30.046874v60.855469h30v-60.855469h30.046876v60.855469h30v-60.855469h30.046874v60.855469h30v-60.855469h30.050782v60.855469h30v-60.855469h30.023437v-30.023437h60.855469v-30h-60.855469v-30.050782h60.855469v-30h-60.855469v-30.046874h60.855469v-30h-60.855469v-30.046876h60.855469v-30h-60.855469v-30.046874h60.855469v-30h-60.855469v-30.050782zm-90.855469 300.265625h-330.289062v-330.289062h330.289062zm0 0" data-original="#000000" class="active-path" data-old_color="#000000" fill="#FFFFFF"/><path d="m339 173h-166v166h166zm-30 136h-106v-106h106zm0 0" data-original="#000000" class="active-path" data-old_color="#000000" fill="#FFFFFF"/></g> </svg>
